<svg width="28" height="28" viewBox="0 0 28 28" fill="none" xmlns="http://www.w3.org/2000/svg">
<path fill-rule="evenodd" clip-rule="evenodd" d="M14 25.2C16.9705 25.2 19.8192 24.02 21.9196 21.9196C24.0201 19.8192 25.2 16.9704 25.2 14C25.2 11.0296 24.0201 8.1808 21.9196 6.08039C19.8192 3.97998 16.9705 2.79999 14 2.79999C11.0296 2.79999 8.18086 3.97998 6.08045 6.08039C3.98005 8.1808 2.80005 11.0296 2.80005 14C2.80005 16.9704 3.98005 19.8192 6.08045 21.9196C8.18086 24.02 11.0296 25.2 14 25.2ZM14.9898 10.7898C15.2449 10.5257 15.386 10.1721 15.3828 9.80503C15.3796 9.43795 15.2324 9.08681 14.9728 8.82724C14.7132 8.56767 14.3621 8.42043 13.995 8.41724C13.6279 8.41405 13.2743 8.55517 13.0102 8.81019L8.81025 13.0102C8.54779 13.2727 8.40035 13.6288 8.40035 14C8.40035 14.3712 8.54779 14.7272 8.81025 14.9898L13.0102 19.1898C13.2743 19.4448 13.6279 19.5859 13.995 19.5827C14.3621 19.5795 14.7132 19.4323 14.9728 19.1727C15.2324 18.9132 15.3796 18.562 15.3828 18.1949C15.386 17.8279 15.2449 17.4742 14.9898 17.2102L13.1796 15.4H18.2C18.5714 15.4 18.9274 15.2525 19.19 14.9899C19.4525 14.7274 19.6 14.3713 19.6 14C19.6 13.6287 19.4525 13.2726 19.19 13.01C18.9274 12.7475 18.5714 12.6 18.2 12.6H13.1796L14.9898 10.7898Z" fill="#57AA6E"/>
</svg>
