<svg width="23" height="26" viewBox="0 0 23 26" fill="none" xmlns="http://www.w3.org/2000/svg">
<path d="M14.965 6.74999L6.73253 14.9825C6.49375 15.2131 6.30329 15.489 6.17227 15.794C6.04125 16.099 5.97228 16.427 5.9694 16.759C5.96651 17.0909 6.02977 17.4201 6.15547 17.7274C6.28117 18.0346 6.46681 18.3137 6.70154 18.5485C6.93627 18.7832 7.2154 18.9688 7.52264 19.0945C7.82988 19.2202 8.15908 19.2835 8.49103 19.2806C8.82298 19.2777 9.15103 19.2088 9.45604 19.0777C9.76105 18.9467 10.0369 18.7563 10.2675 18.5175L18.285 10.285C19.1958 9.34198 19.6998 8.07897 19.6884 6.76799C19.677 5.457 19.1512 4.20294 18.2241 3.2759C17.2971 2.34886 16.043 1.82301 14.732 1.81162C13.421 1.80023 12.158 2.3042 11.215 3.21499L3.19627 11.4462C1.78963 12.8529 0.99939 14.7607 0.99939 16.75C0.99939 18.7393 1.78963 20.6471 3.19627 22.0537C4.60292 23.4604 6.51073 24.2506 8.50003 24.2506C10.4893 24.2506 12.3971 23.4604 13.8038 22.0537L21.625 14.25" stroke="#57AA6E" stroke-width="2" stroke-linecap="round" stroke-linejoin="round"/>
</svg>
