<svg width="124" height="124" viewBox="0 0 124 124" fill="none" xmlns="http://www.w3.org/2000/svg">
<path d="M0 10C0 4.47715 4.47715 0 10 0H114C119.523 0 124 4.47715 124 10V114C124 119.523 119.523 124 114 124H10C4.47715 124 0 119.523 0 114V10Z" fill="#EFEFEF"/>
<path d="M52.9091 56.5455C54.9174 56.5455 56.5455 54.9174 56.5455 52.9091C56.5455 50.9008 54.9174 49.2727 52.9091 49.2727C50.9008 49.2727 49.2728 50.9008 49.2728 52.9091C49.2728 54.9174 50.9008 56.5455 52.9091 56.5455Z" fill="#CDCDCD"/>
<path fill-rule="evenodd" clip-rule="evenodd" d="M46 42C43.7909 42 42 43.7909 42 46V78C42 80.2091 43.7909 82 46 82H78C80.2091 82 82 80.2091 82 78V46C82 43.7909 80.2091 42 78 42H46ZM78 44H46C44.8954 44 44 44.8954 44 46V67.2667L56.6547 64.3139C57.5486 64.1053 58.4635 64 59.3814 64H64.6186C65.5365 64 66.4514 64.1053 67.3453 64.3139L80 67.2667V46C80 44.8954 79.1046 44 78 44Z" fill="#CDCDCD"/>
</svg>
