<svg width="17" height="15" viewBox="0 0 17 15" fill="none" xmlns="http://www.w3.org/2000/svg">
<path d="M0.766045 2.17477C0.34297 1.81977 0.287786 1.18901 0.642788 0.765938V0.765938C0.997789 0.342863 1.62854 0.287679 2.05162 0.642681L15.8404 12.2129C16.2635 12.5679 16.3187 13.1986 15.9637 13.6217V13.6217C15.6087 14.0448 14.9779 14.0999 14.5548 13.7449L0.766045 2.17477Z" fill="#999999"/>
<path d="M0.528307 1.97528C0.236531 1.73046 0.287786 1.18901 0.642788 0.765938C0.997789 0.342863 1.52211 0.198367 1.81388 0.443195L16.0782 12.4123C16.3699 12.6572 16.3187 13.1986 15.9637 13.6217C15.6087 14.0448 15.0844 14.1893 14.7926 13.9444L0.528307 1.97528Z" fill="#999999"/>
<path d="M14.5549 0.642788C14.978 0.287786 15.6087 0.34297 15.9637 0.766044V0.766044C16.3187 1.18912 16.2635 1.81987 15.8405 2.17488L2.05165 13.7451C1.62858 14.1001 0.997823 14.0449 0.642821 13.6218V13.6218C0.28782 13.1987 0.343004 12.568 0.766078 12.213L14.5549 0.642788Z" fill="#999999"/>
<path d="M14.7926 0.443302C15.0844 0.198473 15.6087 0.34297 15.9637 0.766044C16.3187 1.18912 16.37 1.73056 16.0782 1.97539L1.81392 13.9445C1.52214 14.1894 0.997823 14.0449 0.642821 13.6218C0.28782 13.1987 0.236565 12.6573 0.52834 12.4124L14.7926 0.443302Z" fill="#999999"/>
</svg>
